<?xml version="1.0" encoding="UTF-8" standalone="no"?>
<!DOCTYPE svg PUBLIC "-//W3C//DTD SVG 1.1//EN" "http://www.w3.org/Graphics/SVG/1.1/DTD/svg11.dtd">
<svg version="1.1" xmlns="http://www.w3.org/2000/svg" xmlns:xlink="http://www.w3.org/1999/xlink" preserveAspectRatio="xMidYMid meet" viewBox="135.45027101396704 83.95112268025319 186.91385975604692 236.0488773197468" width="186.91" height="236.05"><defs><path d="M276.39 167.74C271 185.52 265.79 203.83 264.54 207.96C262.74 214.79 262.02 215.68 258.61 214.97C256.46 214.43 246.04 212.99 235.45 211.73C222.16 210.3 216.06 208.86 216.06 207.24C216.06 205.99 218.03 196.47 220.55 185.88C225.93 163.08 228.81 136.5 227.01 126.63C226.93 126.15 226.51 123.76 225.75 119.45C224.89 126.34 224.41 130.17 224.32 130.94C222.88 141.89 215.34 171.87 207.8 197.01C204.93 206.71 203.85 208.32 200.08 208.32C197.21 208.32 196.31 207.6 197.03 205.63C203.13 189.47 214.8 148.89 216.06 138.66C218.03 124.12 215.88 101.67 211.93 94.13C209.59 89.64 209.41 90.54 208.34 106.16C206.9 126.81 203.67 145.3 194.87 180.85C188.95 205.45 187.87 208.32 183.92 209.22C181.58 209.76 179.43 209.94 179.07 209.58C178.53 209.22 181.58 198.09 185.53 185.16C199.72 139.02 204.93 110.29 201.87 93.41C200.26 84.08 200.26 84.26 195.59 111.01C193.26 123.94 182.3 163.62 168.48 209.58C168.12 210.84 164.89 212.99 161.48 214.43C152.14 218.38 142.26 225.38 138.67 231.12C133.47 238.85 134.54 239.56 142.08 233.64C151.6 225.92 163.09 221.43 178.17 218.92C191.28 216.94 196.13 217.3 248.38 222.69C268.13 224.84 283.21 223.58 295.96 218.92C307.27 214.61 307.27 214.61 302.24 219.99C293.08 229.69 268.13 232.56 224.14 229.15C211.93 228.25 202.77 228.43 199.9 229.51C195.95 230.95 196.85 231.48 208.88 234.18C216.24 235.97 230.96 238.49 241.55 239.92C262.74 242.62 273.69 241.36 286.62 235.07C290.21 233.1 293.26 232.2 293.26 232.92C293.26 233.82 292.01 239.92 290.57 246.92C288.06 259.67 284.11 293.07 285.18 294.15C286.44 295.4 300.26 249.98 308.34 219.1C320.02 174.03 323.25 153.38 322.17 132.02C321.81 122.14 319.3 127.17 317.68 140.99C316.42 151.77 311.22 172.95 302.96 200.6C298.83 214.25 298.11 215.5 293.8 215.5C290.39 215.5 289.49 214.79 290.39 212.63C298.47 191.8 309.6 154.28 310.86 144.22C312.83 127.17 310.68 106.52 306.01 97.72C305.76 97.25 304.5 94.92 302.24 90.72C302.89 94.6 303.25 96.75 303.32 97.18C305.29 109.93 298.65 151.59 287.7 193.42C282.31 213.71 281.59 215.5 277.64 215.5C275.49 215.5 273.51 214.43 273.51 213.17C273.51 211.73 276.39 201.86 279.8 191.09C292.36 150.87 295.24 138.3 296.31 115.86C296.85 103.29 296.49 91.8 295.42 88.03C293.62 81.92 293.62 82.1 293.44 92.51C293.08 106.7 288.24 127.89 276.39 167.74Z" id="a6xzaujWi"></path><path d="M136.52 245.13C134.9 248.18 135.08 248.36 137.42 246.57C138.85 245.31 146.03 241.54 153.4 238.13C166.68 231.84 166.68 231.84 159.5 231.84C155.55 232.02 151.06 232.38 149.63 232.92C145.86 234.36 138.85 240.82 136.52 245.13Z" id="bMBImLzR"></path><path d="M155.91 247.64C156.27 247.71 158.06 248.07 161.3 248.72C161.94 260.03 162.3 266.32 162.37 267.57C163.63 288.04 167.94 302.05 175.48 311.56C175.77 311.92 177.2 313.72 179.79 316.95C177.74 310.81 176.61 307.4 176.38 306.71C170.63 289.66 167.04 253.03 170.81 250.87C171.53 250.34 176.74 250.87 182.48 251.77C183.18 251.89 186.65 252.49 192.9 253.57L191.82 270.98L190.92 288.22C194.48 277.99 196.45 272.3 196.85 271.16C201.33 258.6 203.67 254.11 205.82 254.29C207.62 254.29 219.83 254.47 233.11 254.65C234.73 254.67 242.81 254.79 257.35 255C257.35 263.3 257.35 267.91 257.35 268.83C257.35 288.22 263.1 307.79 270.46 313.9C272.26 315.51 272.08 313.36 269.38 305.64C267.05 298.81 265.61 288.58 264.89 274.57C264 253.75 264 253.75 268.31 252.67C270.64 252.13 274.23 250.34 276.03 249.08C279.26 246.75 278.18 246.57 267.05 247.28C260.23 247.82 242.63 246.92 227.91 245.31C203.31 242.62 171.17 241.9 160.4 243.69C151.96 245.13 150.16 246.57 155.91 247.64Z" id="l2GDwfCZrX"></path><path d="M178.71 287.14C179.61 302.94 182.48 311.38 188.41 316.23C191.28 318.56 191.46 318.38 190.2 315.15C187.87 309.59 184.1 291.45 182.3 277.45C181.23 268.65 180.33 265.78 179.25 268.11C178.53 269.91 178.35 278.52 178.71 287.14Z" id="c6WR0ivrmO"></path><path d="M279.98 314.43C280.36 314.81 282.27 316.66 285.72 320C283.67 314.07 282.54 310.78 282.31 310.12C280.51 304.56 278.36 294.32 277.82 286.96C275.85 265.24 273.33 266.32 273.87 288.58C274.41 308.51 274.41 308.87 279.98 314.43Z" id="e3Cd2aDaKR"></path></defs><g><g><g><use xlink:href="#a6xzaujWi" opacity="1" fill="#430098" fill-opacity="1"></use><g><use xlink:href="#a6xzaujWi" opacity="1" fill-opacity="0" stroke="#000000" stroke-width="0" stroke-opacity="0"></use></g></g><g><use xlink:href="#bMBImLzR" opacity="1" fill="#430098" fill-opacity="1"></use><g><use xlink:href="#bMBImLzR" opacity="1" fill-opacity="0" stroke="#000000" stroke-width="0" stroke-opacity="0"></use></g></g><g><use xlink:href="#l2GDwfCZrX" opacity="1" fill="#430098" fill-opacity="1"></use><g><use xlink:href="#l2GDwfCZrX" opacity="1" fill-opacity="0" stroke="#000000" stroke-width="0" stroke-opacity="0"></use></g></g><g><use xlink:href="#c6WR0ivrmO" opacity="1" fill="#430098" fill-opacity="1"></use><g><use xlink:href="#c6WR0ivrmO" opacity="1" fill-opacity="0" stroke="#000000" stroke-width="0" stroke-opacity="0"></use></g></g><g><use xlink:href="#e3Cd2aDaKR" opacity="1" fill="#430098" fill-opacity="1"></use><g><use xlink:href="#e3Cd2aDaKR" opacity="1" fill-opacity="0" stroke="#000000" stroke-width="0" stroke-opacity="0"></use></g></g></g></g></svg>