<?xml version="1.0" encoding="UTF-8" standalone="no"?>
<!DOCTYPE svg PUBLIC "-//W3C//DTD SVG 1.1//EN" "http://www.w3.org/Graphics/SVG/1.1/DTD/svg11.dtd">
<svg version="1.1" xmlns="http://www.w3.org/2000/svg" xmlns:xlink="http://www.w3.org/1999/xlink" preserveAspectRatio="xMidYMid meet" viewBox="133.43405172413583 69.78276827972437 288.9472068482568 321.48992406491004" width="284.95" height="317.49"><defs><path d="M393.16 70.88L394.32 70.99L395.46 71.15L396.59 71.36L397.7 71.61L398.8 71.9L399.87 72.23L400.93 72.6L401.97 73.02L402.99 73.47L403.98 73.95L404.95 74.48L405.9 75.04L406.82 75.64L407.72 76.27L408.6 76.93L409.44 77.63L410.26 78.36L411.05 79.12L411.81 79.91L412.53 80.72L413.23 81.57L413.9 82.44L414.53 83.34L415.12 84.26L415.68 85.21L416.21 86.18L416.7 87.18L417.15 88.2L417.56 89.23L417.93 90.29L418.27 91.37L418.56 92.46L418.8 93.57L419.01 94.7L419.17 95.84L419.29 97L419.36 98.17L419.38 99.36L419.38 359.7L419.36 360.88L419.29 362.05L419.17 363.21L419.01 364.36L418.8 365.48L418.56 366.6L418.27 367.69L417.93 368.77L417.56 369.82L417.15 370.86L416.7 371.88L416.21 372.87L415.68 373.84L415.12 374.79L414.53 375.72L413.9 376.61L413.23 377.49L412.53 378.33L411.81 379.15L411.05 379.94L410.26 380.7L409.44 381.43L408.6 382.12L407.72 382.79L406.82 383.42L405.9 384.01L404.95 384.58L403.98 385.1L402.99 385.59L401.97 386.04L400.93 386.45L399.87 386.82L398.8 387.16L397.7 387.45L396.59 387.7L395.46 387.9L394.32 388.06L393.16 388.18L391.99 388.25L390.81 388.27L163.01 388.27L161.82 388.25L160.65 388.18L159.49 388.06L158.35 387.9L157.22 387.7L156.11 387.45L155.02 387.16L153.94 386.82L152.88 386.45L151.85 386.04L150.83 385.59L149.84 385.1L148.86 384.58L147.92 384.01L146.99 383.42L146.09 382.79L145.22 382.12L144.37 381.43L143.56 380.7L142.77 379.94L142.01 379.15L141.28 378.33L140.58 377.49L139.92 376.61L139.29 375.72L138.69 374.79L138.13 373.84L137.61 372.87L137.12 371.88L136.67 370.86L136.25 369.82L135.88 368.77L135.55 367.69L135.26 366.6L135.01 365.48L134.81 364.36L134.64 363.21L134.53 362.05L134.46 360.88L134.43 359.7L134.43 99.36L134.46 98.17L134.53 97L134.64 95.84L134.81 94.7L135.01 93.57L135.26 92.46L135.55 91.37L135.88 90.29L136.25 89.23L136.67 88.2L137.12 87.18L137.61 86.18L138.13 85.21L138.69 84.26L139.29 83.34L139.92 82.44L140.58 81.57L141.28 80.72L142.01 79.91L142.77 79.12L143.56 78.36L144.37 77.63L145.22 76.93L146.09 76.27L146.99 75.64L147.92 75.04L148.86 74.48L149.84 73.95L150.83 73.47L151.85 73.02L152.88 72.6L153.94 72.23L155.02 71.9L156.11 71.61L157.22 71.36L158.35 71.15L159.49 70.99L160.65 70.88L161.82 70.81L163.01 70.78L390.81 70.78L391.99 70.81L393.16 70.88ZM162.48 86.67L161.95 86.7L161.43 86.75L160.92 86.82L160.41 86.91L159.91 87.02L159.42 87.15L158.94 87.29L158.47 87.46L158.01 87.64L157.56 87.84L157.11 88.05L156.68 88.28L156.26 88.53L155.85 88.79L155.45 89.07L155.07 89.36L154.69 89.67L154.33 89.99L153.98 90.33L153.64 90.68L153.32 91.04L153.01 91.41L152.72 91.8L152.44 92.2L152.18 92.61L151.93 93.03L151.7 93.46L151.49 93.91L151.29 94.36L151.11 94.82L150.94 95.29L150.8 95.77L150.67 96.26L150.56 96.76L150.47 97.27L150.4 97.78L150.35 98.3L150.32 98.82L150.31 99.36L150.31 359.7L150.32 360.23L150.35 360.76L150.4 361.28L150.47 361.79L150.56 362.3L150.67 362.79L150.8 363.28L150.94 363.76L151.11 364.23L151.29 364.7L151.49 365.15L151.7 365.59L151.93 366.02L152.18 366.45L152.44 366.86L152.72 367.25L153.01 367.64L153.32 368.02L153.64 368.38L153.98 368.73L154.33 369.06L154.69 369.38L155.07 369.69L155.45 369.99L155.85 370.26L156.26 370.53L156.68 370.77L157.11 371.01L157.56 371.22L158.01 371.42L158.47 371.6L158.94 371.76L159.42 371.91L159.91 372.04L160.41 372.15L160.92 372.24L161.43 372.31L161.95 372.36L162.48 372.39L163.01 372.4L390.81 372.4L391.16 372.39L391.52 372.37L391.87 372.33L392.22 372.27L392.57 372.2L392.91 372.11L393.26 372.01L393.6 371.89L393.94 371.76L394.28 371.6L394.62 371.44L394.95 371.26L395.28 371.06L395.61 370.84L395.94 370.61L396.27 370.37L396.59 370.1L396.91 369.83L397.24 369.53L397.55 369.22L397.87 368.9L398.18 368.56L398.5 368.2L398.81 367.83L399.12 367.44L399.42 367.03L399.73 366.61L400.03 366.18L400.33 365.72L400.63 365.25L400.93 364.77L401.22 364.27L401.51 363.75L401.8 363.22L402.09 362.68L402.38 362.11L402.66 361.53L402.95 360.94L403.23 360.33L403.51 359.7L403.51 99.36L403.5 98.82L403.47 98.3L403.41 97.78L403.34 97.27L403.25 96.76L403.15 96.26L403.02 95.77L402.87 95.29L402.71 94.82L402.53 94.36L402.33 93.91L402.11 93.46L401.88 93.03L401.64 92.61L401.37 92.2L401.09 91.8L400.8 91.41L400.49 91.04L400.17 90.68L399.84 90.33L399.49 89.99L399.12 89.67L398.75 89.36L398.36 89.07L397.96 88.79L397.55 88.53L397.13 88.28L396.7 88.05L396.26 87.84L395.81 87.64L395.34 87.46L394.87 87.29L394.39 87.15L393.9 87.02L393.4 86.91L392.9 86.82L392.39 86.75L391.87 86.7L391.34 86.67L390.81 86.66L163.01 86.66L162.48 86.67ZM238.03 208.47L239.25 208.06L240.5 207.64L241.77 207.23L243.06 206.82L244.37 206.41L245.7 206L247.05 205.6L248.42 205.2L249.81 204.81L251.21 204.42L252.63 204.04L254.07 203.66L255.52 203.3L256.99 202.93L258.46 202.58L259.96 202.23L261.46 201.9L262.98 201.57L264.51 201.25L266.04 200.94L267.59 200.65L269.15 200.36L270.71 200.09L272.29 199.83L273.87 199.58L275.45 199.35L277.04 199.13L278.64 198.92L280.24 198.73L281.85 198.56L283.46 198.4L285.07 198.26L286.68 198.14L288.29 198.03L289.91 197.94L291.52 197.87L293.13 197.82L294.75 197.79L296.35 197.78L297.83 197.79L299.27 197.84L300.69 197.91L302.07 198.01L303.43 198.13L304.76 198.28L306.06 198.46L307.33 198.66L308.57 198.88L309.79 199.12L310.97 199.38L312.13 199.66L313.27 199.97L314.37 200.29L315.45 200.62L316.51 200.98L317.54 201.35L318.54 201.73L319.51 202.13L320.46 202.54L321.39 202.96L322.29 203.4L323.16 203.84L324.01 204.29L324.84 204.75L325.64 205.22L326.42 205.7L327.17 206.18L327.9 206.67L328.61 207.15L329.3 207.65L329.96 208.14L330.6 208.64L331.21 209.13L331.81 209.63L332.38 210.12L332.93 210.61L333.46 211.1L333.97 211.59L334.45 212.07L335.44 213.08L336.38 214.12L337.27 215.16L338.11 216.21L338.91 217.27L339.66 218.34L340.37 219.41L341.04 220.49L341.67 221.56L342.25 222.63L342.8 223.7L343.32 224.77L343.8 225.83L344.24 226.88L344.65 227.92L345.03 228.94L345.38 229.96L345.7 230.96L345.99 231.94L346.26 232.9L346.5 233.84L346.72 234.76L346.91 235.66L347.08 236.53L347.23 237.37L347.37 238.18L347.48 238.96L347.58 239.7L347.67 240.41L347.74 241.09L347.79 241.72L347.84 242.32L347.87 242.87L347.9 243.38L347.92 243.84L347.93 244.25L347.94 244.62L347.94 244.93L347.95 245.2L347.95 245.4L347.95 340.65L316.2 340.65L316.2 245.4L316.19 244.81L316.17 244.21L316.13 243.61L316.07 243.01L316 242.41L315.9 241.81L315.79 241.21L315.66 240.62L315.5 240.03L315.33 239.45L315.13 238.87L314.91 238.3L314.67 237.74L314.4 237.18L314.1 236.64L313.78 236.11L313.44 235.58L313.06 235.07L312.66 234.58L312.23 234.09L311.77 233.62L311.27 233.17L310.75 232.73L310.2 232.32L309.61 231.92L308.99 231.53L308.33 231.17L307.64 230.83L306.91 230.52L306.15 230.22L305.35 229.95L304.51 229.71L303.64 229.49L302.72 229.29L301.76 229.12L300.77 228.99L299.73 228.88L298.65 228.8L297.52 228.75L296.35 228.73L293.96 228.76L291.56 228.85L289.15 229L286.73 229.2L284.31 229.45L281.88 229.75L279.47 230.09L277.06 230.47L274.67 230.89L272.29 231.34L269.94 231.82L267.61 232.33L265.31 232.87L263.04 233.43L260.8 234.01L258.61 234.6L256.46 235.21L254.36 235.82L252.31 236.44L250.32 237.07L248.38 237.69L246.51 238.31L244.71 238.93L242.98 239.54L241.32 240.13L239.74 240.71L238.25 241.26L236.84 241.8L235.52 242.31L234.29 242.8L233.17 243.25L232.14 243.67L231.23 244.05L230.42 244.39L229.72 244.69L229.15 244.94L228.69 245.14L228.36 245.28L228.16 245.37L228.09 245.4L205.87 255.72L205.87 118.41L236.82 118.41L236.82 208.89L238.03 208.47ZM205.87 340.65L205.87 277.15L241.59 308.9L205.87 340.65ZM347.49 121.52L347.23 123.07L346.94 124.61L346.63 126.14L346.29 127.66L345.93 129.18L345.54 130.69L345.12 132.2L344.68 133.7L344.22 135.2L343.72 136.69L343.2 138.17L342.65 139.65L342.07 141.13L341.47 142.6L340.83 144.07L340.17 145.53L339.48 146.99L338.75 148.44L338 149.89L337.22 151.34L336.41 152.79L335.56 154.23L334.69 155.67L333.78 157.11L332.84 158.55L331.87 159.98L330.86 161.42L329.83 162.85L328.76 164.28L327.65 165.71L326.51 167.14L325.34 168.57L324.13 170L292.39 170L293.46 168.57L294.52 167.14L295.55 165.71L296.55 164.28L297.54 162.85L298.5 161.42L299.43 159.98L300.35 158.55L301.24 157.11L302.1 155.67L302.95 154.23L303.77 152.79L304.57 151.34L305.34 149.89L306.09 148.44L306.82 146.99L307.52 145.53L308.2 144.07L308.86 142.6L309.49 141.13L310.1 139.65L310.69 138.17L311.25 136.69L311.79 135.2L312.31 133.7L312.8 132.2L313.27 130.69L313.72 129.18L314.14 127.66L314.54 126.14L314.92 124.61L315.28 123.07L315.61 121.52L315.91 119.97L316.2 118.41L347.95 118.41L347.73 119.97L347.49 121.52Z" id="b7T6BIiv5O"></path></defs><g><g><g><filter id="shadow13908918" x="125.43" y="61.78" width="303.95" height="336.49" filterUnits="userSpaceOnUse" primitiveUnits="userSpaceOnUse"><feFlood></feFlood><feComposite in2="SourceAlpha" operator="in"></feComposite><feGaussianBlur stdDeviation="1"></feGaussianBlur><feOffset dx="1" dy="1" result="afterOffset"></feOffset><feFlood flood-color="#000000" flood-opacity="0.5"></feFlood><feComposite in2="afterOffset" operator="in"></feComposite><feMorphology operator="dilate" radius="1"></feMorphology><feComposite in2="SourceAlpha" operator="out"></feComposite></filter><path d="M393.16 70.88L394.32 70.99L395.46 71.15L396.59 71.36L397.7 71.61L398.8 71.9L399.87 72.23L400.93 72.6L401.97 73.02L402.99 73.47L403.98 73.95L404.95 74.48L405.9 75.04L406.82 75.64L407.72 76.27L408.6 76.93L409.44 77.63L410.26 78.36L411.05 79.12L411.81 79.91L412.53 80.72L413.23 81.57L413.9 82.44L414.53 83.34L415.12 84.26L415.68 85.21L416.21 86.18L416.7 87.18L417.15 88.2L417.56 89.23L417.93 90.29L418.27 91.37L418.56 92.46L418.8 93.57L419.01 94.7L419.17 95.84L419.29 97L419.36 98.17L419.38 99.36L419.38 359.7L419.36 360.88L419.29 362.05L419.17 363.21L419.01 364.36L418.8 365.48L418.56 366.6L418.27 367.69L417.93 368.77L417.56 369.82L417.15 370.86L416.7 371.88L416.21 372.87L415.68 373.84L415.12 374.79L414.53 375.72L413.9 376.61L413.23 377.49L412.53 378.33L411.81 379.15L411.05 379.94L410.26 380.7L409.44 381.43L408.6 382.12L407.72 382.79L406.82 383.42L405.9 384.01L404.95 384.58L403.98 385.1L402.99 385.59L401.97 386.04L400.93 386.45L399.87 386.82L398.8 387.16L397.7 387.45L396.59 387.7L395.46 387.9L394.32 388.06L393.16 388.18L391.99 388.25L390.81 388.27L163.01 388.27L161.82 388.25L160.65 388.18L159.49 388.06L158.35 387.9L157.22 387.7L156.11 387.45L155.02 387.16L153.94 386.82L152.88 386.45L151.85 386.04L150.83 385.59L149.84 385.1L148.86 384.58L147.92 384.01L146.99 383.42L146.09 382.79L145.22 382.12L144.37 381.43L143.56 380.7L142.77 379.94L142.01 379.15L141.28 378.33L140.58 377.49L139.92 376.61L139.29 375.72L138.69 374.79L138.13 373.84L137.61 372.87L137.12 371.88L136.67 370.86L136.25 369.82L135.88 368.77L135.55 367.69L135.26 366.6L135.01 365.48L134.81 364.36L134.64 363.21L134.53 362.05L134.46 360.88L134.43 359.7L134.43 99.36L134.46 98.17L134.53 97L134.64 95.84L134.81 94.7L135.01 93.57L135.26 92.46L135.55 91.37L135.88 90.29L136.25 89.23L136.67 88.2L137.12 87.18L137.61 86.18L138.13 85.21L138.69 84.26L139.29 83.34L139.92 82.44L140.58 81.57L141.28 80.72L142.01 79.91L142.77 79.12L143.56 78.36L144.37 77.63L145.22 76.93L146.09 76.27L146.99 75.64L147.92 75.04L148.86 74.48L149.84 73.95L150.83 73.47L151.85 73.02L152.88 72.6L153.94 72.23L155.02 71.9L156.11 71.61L157.22 71.36L158.35 71.15L159.49 70.99L160.65 70.88L161.82 70.81L163.01 70.78L390.81 70.78L391.99 70.81L393.16 70.88ZM162.48 86.67L161.95 86.7L161.43 86.75L160.92 86.82L160.41 86.91L159.91 87.02L159.42 87.15L158.94 87.29L158.47 87.46L158.01 87.64L157.56 87.84L157.11 88.05L156.68 88.28L156.26 88.53L155.85 88.79L155.45 89.07L155.07 89.36L154.69 89.67L154.33 89.99L153.98 90.33L153.64 90.68L153.32 91.04L153.01 91.41L152.72 91.8L152.44 92.2L152.18 92.61L151.93 93.03L151.7 93.46L151.49 93.91L151.29 94.36L151.11 94.82L150.94 95.29L150.8 95.77L150.67 96.26L150.56 96.76L150.47 97.27L150.4 97.78L150.35 98.3L150.32 98.82L150.31 99.36L150.31 359.7L150.32 360.23L150.35 360.76L150.4 361.28L150.47 361.79L150.56 362.3L150.67 362.79L150.8 363.28L150.94 363.76L151.11 364.23L151.29 364.7L151.49 365.15L151.7 365.59L151.93 366.02L152.18 366.45L152.44 366.86L152.72 367.25L153.01 367.64L153.32 368.02L153.64 368.38L153.98 368.73L154.33 369.06L154.69 369.38L155.07 369.69L155.45 369.99L155.85 370.26L156.26 370.53L156.68 370.77L157.11 371.01L157.56 371.22L158.01 371.42L158.47 371.6L158.94 371.76L159.42 371.91L159.91 372.04L160.41 372.15L160.92 372.24L161.43 372.31L161.95 372.36L162.48 372.39L163.01 372.4L390.81 372.4L391.16 372.39L391.52 372.37L391.87 372.33L392.22 372.27L392.57 372.2L392.91 372.11L393.26 372.01L393.6 371.89L393.94 371.76L394.28 371.6L394.62 371.44L394.95 371.26L395.28 371.06L395.61 370.84L395.94 370.61L396.27 370.37L396.59 370.1L396.91 369.83L397.24 369.53L397.55 369.22L397.87 368.9L398.18 368.56L398.5 368.2L398.81 367.83L399.12 367.44L399.42 367.03L399.73 366.61L400.03 366.18L400.33 365.72L400.63 365.25L400.93 364.77L401.22 364.27L401.51 363.75L401.8 363.22L402.09 362.68L402.38 362.11L402.66 361.53L402.95 360.94L403.23 360.33L403.51 359.7L403.51 99.36L403.5 98.82L403.47 98.3L403.41 97.78L403.34 97.27L403.25 96.76L403.15 96.26L403.02 95.77L402.87 95.29L402.71 94.82L402.53 94.36L402.33 93.91L402.11 93.46L401.88 93.03L401.64 92.61L401.37 92.2L401.09 91.8L400.8 91.41L400.49 91.04L400.17 90.68L399.84 90.33L399.49 89.99L399.12 89.67L398.75 89.36L398.36 89.07L397.96 88.79L397.55 88.53L397.13 88.28L396.7 88.05L396.26 87.84L395.81 87.64L395.34 87.46L394.87 87.29L394.39 87.15L393.9 87.02L393.4 86.91L392.9 86.82L392.39 86.75L391.87 86.7L391.34 86.67L390.81 86.66L163.01 86.66L162.48 86.67ZM238.03 208.47L239.25 208.06L240.5 207.64L241.77 207.23L243.06 206.82L244.37 206.41L245.7 206L247.05 205.6L248.42 205.2L249.81 204.81L251.21 204.42L252.63 204.04L254.07 203.66L255.52 203.3L256.99 202.93L258.46 202.58L259.96 202.23L261.46 201.9L262.98 201.57L264.51 201.25L266.04 200.94L267.59 200.65L269.15 200.36L270.71 200.09L272.29 199.83L273.87 199.58L275.45 199.35L277.04 199.13L278.64 198.92L280.24 198.73L281.85 198.56L283.46 198.4L285.07 198.26L286.68 198.14L288.29 198.03L289.91 197.94L291.52 197.87L293.13 197.82L294.75 197.79L296.35 197.78L297.83 197.79L299.27 197.84L300.69 197.91L302.07 198.01L303.43 198.13L304.76 198.28L306.06 198.46L307.33 198.66L308.57 198.88L309.79 199.12L310.97 199.38L312.13 199.66L313.27 199.97L314.37 200.29L315.45 200.62L316.51 200.98L317.54 201.35L318.54 201.73L319.51 202.13L320.46 202.54L321.39 202.96L322.29 203.4L323.16 203.84L324.01 204.29L324.84 204.75L325.64 205.22L326.42 205.7L327.17 206.18L327.9 206.67L328.61 207.15L329.3 207.65L329.96 208.14L330.6 208.64L331.21 209.13L331.81 209.63L332.38 210.12L332.93 210.61L333.46 211.1L333.97 211.59L334.45 212.07L335.44 213.08L336.38 214.12L337.27 215.16L338.11 216.21L338.91 217.27L339.66 218.34L340.37 219.41L341.04 220.49L341.67 221.56L342.25 222.63L342.8 223.7L343.32 224.77L343.8 225.83L344.24 226.88L344.65 227.92L345.03 228.94L345.38 229.96L345.7 230.96L345.99 231.94L346.26 232.9L346.5 233.84L346.72 234.76L346.91 235.66L347.08 236.53L347.23 237.37L347.37 238.18L347.48 238.96L347.58 239.7L347.67 240.41L347.74 241.09L347.79 241.72L347.84 242.32L347.87 242.87L347.9 243.38L347.92 243.84L347.93 244.25L347.94 244.62L347.94 244.93L347.95 245.2L347.95 245.4L347.95 340.65L316.2 340.65L316.2 245.4L316.19 244.81L316.17 244.21L316.13 243.61L316.07 243.01L316 242.41L315.9 241.81L315.79 241.21L315.66 240.62L315.5 240.03L315.33 239.45L315.13 238.87L314.91 238.3L314.67 237.74L314.4 237.18L314.1 236.64L313.78 236.11L313.44 235.58L313.06 235.07L312.66 234.58L312.23 234.09L311.77 233.62L311.27 233.17L310.75 232.73L310.2 232.32L309.61 231.92L308.99 231.53L308.33 231.17L307.64 230.83L306.91 230.52L306.15 230.22L305.35 229.95L304.51 229.71L303.64 229.49L302.72 229.29L301.76 229.12L300.77 228.99L299.73 228.88L298.65 228.8L297.52 228.75L296.35 228.73L293.96 228.76L291.56 228.85L289.15 229L286.73 229.2L284.31 229.45L281.88 229.75L279.47 230.09L277.06 230.47L274.67 230.89L272.29 231.34L269.94 231.82L267.61 232.33L265.31 232.87L263.04 233.43L260.8 234.01L258.61 234.6L256.46 235.21L254.36 235.82L252.31 236.44L250.32 237.07L248.38 237.69L246.51 238.31L244.71 238.93L242.98 239.54L241.32 240.13L239.74 240.71L238.25 241.26L236.84 241.8L235.52 242.31L234.29 242.8L233.17 243.25L232.14 243.67L231.23 244.05L230.42 244.39L229.72 244.69L229.15 244.94L228.69 245.14L228.36 245.28L228.16 245.37L228.09 245.4L205.87 255.72L205.87 118.41L236.82 118.41L236.82 208.89L238.03 208.47ZM205.87 340.65L205.87 277.15L241.59 308.9L205.87 340.65ZM347.49 121.52L347.23 123.07L346.94 124.61L346.63 126.14L346.29 127.66L345.93 129.18L345.54 130.69L345.12 132.2L344.68 133.7L344.22 135.2L343.72 136.69L343.2 138.17L342.65 139.65L342.07 141.13L341.47 142.6L340.83 144.07L340.17 145.53L339.48 146.99L338.75 148.44L338 149.89L337.22 151.34L336.41 152.79L335.56 154.23L334.69 155.67L333.78 157.11L332.84 158.55L331.87 159.98L330.86 161.42L329.83 162.85L328.76 164.28L327.65 165.71L326.51 167.14L325.34 168.57L324.13 170L292.39 170L293.46 168.57L294.52 167.14L295.55 165.71L296.55 164.28L297.54 162.85L298.5 161.42L299.43 159.98L300.35 158.55L301.24 157.11L302.1 155.67L302.95 154.23L303.77 152.79L304.57 151.34L305.34 149.89L306.09 148.44L306.82 146.99L307.52 145.53L308.2 144.07L308.86 142.6L309.49 141.13L310.1 139.65L310.69 138.17L311.25 136.69L311.79 135.2L312.31 133.7L312.8 132.2L313.27 130.69L313.72 129.18L314.14 127.66L314.54 126.14L314.92 124.61L315.28 123.07L315.61 121.52L315.91 119.97L316.2 118.41L347.95 118.41L347.73 119.97L347.49 121.52Z" id="f4jaTljo01" fill="white" fill-opacity="1" filter="url(#shadow13908918)"></path></g><use xlink:href="#b7T6BIiv5O" opacity="1" fill="#430098" fill-opacity="1"></use><g><use xlink:href="#b7T6BIiv5O" opacity="1" fill-opacity="0" stroke="#000000" stroke-width="1" stroke-opacity="0"></use></g></g></g></svg>